Coordinates
version=1
nRows=16
nColumns=36
inDegrees=yes

Units are S.I. units (second, meters, Newtons, ...)
Angles are in degrees.

endheader
time	pelvis_tilt	pelvis_list	pelvis_rotation	pelvis_tx	pelvis_ty	pelvis_tz	hip_flexion_r	hip_adduction_r	hip_rotation_r	knee_angle_r	ankle_angle_r	subtalar_angle_r	hip_flexion_l	hip_adduction_l	hip_rotation_l	knee_angle_l	ankle_angle_l	subtalar_angle_l	lumbar_extension	lumbar_bending	lumbar_rotation	arm_flex_r	arm_add_r	arm_rot_r	elbow_flex_r	pro_sup_r	wrist_flex_r	wrist_dev_r	arm_flex_l	arm_add_l	arm_rot_l	elbow_flex_l	pro_sup_l	wrist_flex_l	wrist_dev_l
      1.00000000	     -0.18662927	     -0.48847656	      4.60976998	     -0.71590198	      0.91495589	      0.27028967	     -4.44490086	      5.02279859	     -6.66664080	    -12.28430023	     11.69427378	      2.95751693	     26.75004167	      2.74497179	      3.86938230	    -32.02138136	      3.82773093	     -7.93413241	     -7.21190821	      2.38517039	      0.65398936	      3.57715194	    -22.94738313	     13.00060773	     40.78160823	     86.51662706	      0.00000000	      0.00000000	     -3.01629530	    -15.20548277	     22.71526268	     15.77691116	     86.51662706	      0.00000000	      0.00000000
      1.01000000	      0.27811074	     -0.47821410	      4.79274120	     -0.70352833	      0.91407358	      0.26951380	     -6.25137895	      5.19034628	     -6.80802666	    -11.41648204	     11.69624355	      2.46179792	     26.31130385	      2.83084435	      4.29554972	    -28.49636200	      3.86518619	     -8.40513897	     -7.84809685	      2.46392997	      0.77082802	      3.94232306	    -23.20725452	     12.50152529	     41.72006365	     86.51662706	      0.00000000	      0.00000000	     -3.08071687	    -15.21162461	     23.29328724	     15.43782692	     86.51662706	      0.00000000	      0.00000000
      1.02000000	      0.49415523	     -0.49046694	      4.90860516	     -0.69111492	      0.91275382	      0.26881864	     -7.64244309	      5.32607114	     -6.91508061	    -10.85890641	     11.88143552	      2.26118233	     26.12881522	      2.84372785	      4.53427491	    -25.10588114	      4.05746323	     -8.29333108	     -8.18012600	      2.52770113	      0.89090919	      4.31389732	    -23.44952615	     12.19222587	     42.53007962	     86.51662706	      0.00000000	      0.00000000	     -3.19386288	    -15.18096514	     23.51074283	     15.08251798	     86.51662706	      0.00000000	      0.00000000
      1.03000000	      0.51658236	     -0.52690128	      4.97398574	     -0.67864593	      0.91109379	      0.26814935	     -8.70085439	      5.43719590	     -6.97784469	    -10.56294430	     12.19629025	      2.28304933	     26.14350528	      2.79787703	      4.58801409	    -21.87827362	      4.36342446	     -7.67392897	     -8.27033885	      2.59018301	      1.00974169	      4.67726256	    -23.67840209	     12.02597975	     43.23364136	     86.51662706	      0.00000000	      0.00000000	     -3.33951944	    -15.11718793	     23.44323668	     14.72228071	     86.51662706	      0.00000000	      0.00000000
      1.04000000	      0.40943667	     -0.58727723	      5.00776494	     -0.66609911	      0.90918274	      0.26743974	     -9.52203815	      5.53125772	     -6.98516187	    -10.47351278	     12.57610089	      2.44378340	     26.28914512	      2.71309859	      4.46373325	    -18.86066498	      4.73695218	     -6.64304703	     -8.19268364	      2.66470818	      1.12323265	      5.01375078	    -23.89766721	     11.94540321	     43.85703039	     86.51662706	      0.00000000	      0.00000000	     -3.49749200	    -15.02475389	     23.18460899	     14.36945774	     86.51662706	      0.00000000	      0.00000000
      1.05000000	      0.23179534	     -0.66844396	      5.02561604	     -0.65344422	      0.90710939	      0.26663934	    -10.19291587	      5.61318415	     -6.92915910	    -10.54240230	     12.95887834	      2.66924987	     26.50744154	      2.61274039	      4.17806036	    -16.11759384	      5.13763613	     -5.30561565	     -8.01798620	      2.75831171	      1.22973915	      5.30413934	    -24.10894459	     11.89411328	     44.42494263	     86.51662706	      0.00000000	      0.00000000	     -3.64805092	    -14.90833884	     22.82934005	     14.03415693	     86.51662706	      0.00000000	      0.00000000
      1.06000000	      0.03084651	     -0.76394860	      5.03648111	     -0.64065707	      0.90497733	      0.26573157	    -10.78136777	      5.68309129	     -6.80921591	    -10.73512337	     13.29458254	      2.90684872	     26.75470263	      2.52114574	      3.76249053	    -13.72715995	      5.53452122	     -3.76995964	     -7.80545653	      2.86837279	      1.33094405	      5.53098940	    -24.31083410	     11.82467396	     44.95645857	     86.51662706	      0.00000000	      0.00000000	     -3.77548183	    -14.77290664	     22.46089408	     13.72255646	     86.51662706	      0.00000000	      0.00000000
      1.07000000	     -0.15901941	     -0.86295895	      5.04169779	     -0.62773192	      0.90288326	      0.26471699	    -11.33411095	      5.73515176	     -6.63449412	    -11.03221742	     13.55005506	      3.12966432	     27.00267035	      2.45997286	      3.26577920	    -11.77351294	      5.90366207	     -2.14558358	     -7.59833366	      2.98249948	      1.43124695	      5.67979074	    -24.49891093	     11.70308213	     45.46267080	     86.51662706	      0.00000000	      0.00000000	     -3.87047348	    -14.62414072	     22.14514603	     13.43652449	     86.51662706	      0.00000000	      0.00000000
      1.08000000	     -0.31409336	     -0.94975885	      5.03721812	     -0.61466709	      0.90089753	      0.26359937	    -11.87925730	      5.75777402	     -6.42429256	    -11.42655416	     13.71009834	      3.33403279	     27.23528264	      2.44513489	      2.75111447	    -10.33487980	      6.22152874	     -0.54096230	     -7.42202883	      3.08138147	      1.53587336	      5.73930161	    -24.66644005	     11.51020414	     45.94578461	     86.51662706	      0.00000000	      0.00000000	     -3.93110420	    -14.46879742	     21.92788028	     13.17420072	     86.51662706	      0.00000000	      0.00000000
      1.09000000	     -0.42032148	     -1.00610486	      5.01828612	     -0.60143756	      0.89908026	      0.26240392	    -12.42987333	      5.73547679	     -6.20605241	    -11.91855666	     13.77514423	      3.53254361	     27.44220464	      2.48684750	      2.28745183	     -9.46823858	      6.45719958	      0.94071205	     -7.28403689	      3.14340242	      1.64823920	      5.70168413	    -24.80552648	     11.24073396	     46.39949351	     86.51662706	      0.00000000	      0.00000000	     -3.96228060	    -14.31458441	     21.83526977	     12.93117317	     86.51662706	      0.00000000	      0.00000000
      1.10000000	     -0.47516470	     -1.01587139	      4.98471340	     -0.58797898	      0.89748815	      0.26117814	    -12.98655326	      5.65273683	     -6.01148753	    -12.51151043	     13.75596228	      3.74490079	     27.61180103	      2.59286586	      1.93705276	     -9.19373694	      6.56669272	      2.20808052	     -7.17588477	      3.14937572	      1.76715669	      5.56291942	    -24.90833026	     10.90037461	     46.81037584	     86.51662706	      0.00000000	      0.00000000	     -3.97368332	    -14.16943805	     21.87626809	     12.70191941	     86.51662706	      0.00000000	      0.00000000
      1.11000000	     -0.48988070	     -0.96876707	      4.94447083	     -0.57420217	      0.89613716	      0.25995244	    -13.53917940	      5.49878471	     -5.87168342	    -13.20885874	     13.66602538	      3.98904528	     27.72880775	      2.77236369	      1.74337094	     -9.48318908	      6.49272136	      3.18898628	     -7.07771760	      3.08583778	      1.88450008	      5.32358229	    -24.96797614	     10.50203344	     47.15999723	     86.51662706	      0.00000000	      0.00000000	     -3.97658851	    -14.04046002	     22.04598001	     12.48123450	     86.51662706	      0.00000000	      0.00000000
      1.12000000	     -0.48730603	     -0.86111893	      4.91390666	     -0.56004926	      0.89496200	      0.25871246	    -14.06909512	      5.27076881	     -5.81207713	    -14.01441576	     13.51250959	      4.27446644	     27.78089375	      3.03805011	      1.72372372	    -10.25734267	      6.17210021	      3.83636097	     -6.96526080	      2.94579760	      1.98415134	      4.98959417	    -24.97891534	     10.06183732	     47.42737719	     86.51662706	      0.00000000	      0.00000000	     -3.98029304	    -13.93299365	     22.32927832	     12.26543769	     86.51662706	      0.00000000	      0.00000000
      1.13000000	     -0.49253982	     -0.69404636	      4.91470166	     -0.54555241	      0.89382588	      0.25741858	    -14.55211243	      4.97283289	     -5.84813256	    -14.93502420	     13.28742178	      4.59884092	     27.77203754	      3.40533833	      1.86942051	    -11.39578619	      5.55060124	      4.13072565	     -6.81750317	      2.72688325	      2.04315855	      4.57232504	    -24.93675196	      9.59568168	     47.59150633	     86.51662706	      0.00000000	      0.00000000	     -3.98912446	    -13.85017699	     22.70416344	     12.05325590	     86.51662706	      0.00000000	      0.00000000
      1.14000000	     -0.52068643	     -0.46983660	      4.96942126	     -0.53081437	      0.89260165	      0.25603988	    -14.96105416	      4.61127547	     -5.98244991	    -15.98391491	     12.96091989	      4.94820290	     27.73247766	      3.88801781	      2.15302835	    -12.76061936	      4.60184781	      4.07872180	     -6.62265782	      2.42813591	      2.03563099	      4.08753074	    -24.83782252	      9.11683850	     47.63367154	     86.51662706	      0.00000000	      0.00000000	     -4.00095316	    -13.79302697	     23.14458421	     11.84638253	     86.51662706	      0.00000000	      0.00000000
      1.15000000	     -0.57209738	     -0.18746601	      5.09725173	     -0.51592670	      0.89128960	      0.25455807	    -15.26630261	      4.18928931	     -6.20406123	    -17.18257237	     12.47917552	      5.29993812	     27.71193349	      4.49134658	      2.53958278	    -14.22953580	      3.34416828	      3.70870528	     -6.38039429	      2.04748633	      1.93897568	      3.55306990	    -24.67898620	      8.63489973	     47.53942025	     86.51662706	      0.00000000	      0.00000000	     -4.00774316	    -13.76094483	     23.62263205	     11.64974987	     86.51662706	      0.00000000	      0.00000000
